<svg width="171" height="45" viewBox="0 0 171 45" fill="none" xmlns="http://www.w3.org/2000/svg">
<path d="M17.104 32.3519L0.783997 25.4399V22.2239L17.104 15.3119V18.3359L4.096 23.8559L17.104 29.3759V32.3519Z" fill="#1A6CE8"/>
<path d="M21.1397 38.6399L28.0037 0.335938H30.9317L24.0677 38.6399H21.1397Z" fill="#1A6CE8"/>
<path d="M34.9547 32.3519V29.3759L47.9627 23.8559L34.9547 18.3359V15.3119L51.3227 22.2239V25.4399L34.9547 32.3519Z" fill="#1A6CE8"/>
<path d="M62.1809 33.0719C63.4289 33.0079 64.2769 32.8479 64.7249 32.5919C65.1729 32.3039 65.4449 31.6639 65.5409 30.6719C65.6689 29.6799 65.7329 27.7759 65.7329 24.9599V2.97594H69.0929V23.8079C69.0929 27.9359 68.9649 30.7679 68.7089 32.3039C68.4529 33.8399 67.8929 34.8319 67.0289 35.2799C66.1649 35.7279 64.5489 35.9679 62.1809 35.9999V33.0719Z" fill="#1A6CE8"/>
<path d="M89.4029 2.97594V21.7439C89.4029 25.9999 89.2589 29.0879 88.9709 31.0079C88.6829 32.9279 87.9949 34.3039 86.9069 35.1359C85.8509 35.9679 84.1229 36.3839 81.7229 36.3839C79.2909 36.3839 77.5309 35.9679 76.4429 35.1359C75.3869 34.3039 74.7149 32.9279 74.4269 31.0079C74.1389 29.0879 73.9949 25.9999 73.9949 21.7439V2.97594H77.3549V23.4719C77.3549 26.4799 77.4349 28.6239 77.5949 29.9039C77.7549 31.1839 78.1229 32.0799 78.6989 32.5919C79.3069 33.0719 80.3149 33.3119 81.7229 33.3119C83.1309 33.3119 84.1229 33.0719 84.6989 32.5919C85.3069 32.0799 85.6909 31.1839 85.8509 29.9039C86.0109 28.6239 86.0909 26.4799 86.0909 23.4719V2.97594H89.4029Z" fill="#1A6CE8"/>
<path d="M107.347 35.9999L105.475 26.8319H97.7946L95.9706 35.9999H92.6106L99.3786 2.97594H103.987L110.707 35.9999H107.347ZM101.779 7.39194H101.491L98.2746 23.8559H104.995L101.779 7.39194Z" fill="#1A6CE8"/>
<path d="M126.364 35.9999L117.58 11.4239H117.388V35.9999H114.172V2.97594H117.58L126.22 27.0239H126.46V2.97594H129.628V35.9999H126.364Z" fill="#1A6CE8"/>
<path d="M61 42.9999H171V44.9999H61V42.9999Z" fill="#1A6CE8"/>
</svg>
